<?xml version="1.0" encoding="UTF-8"?>
<svg width="119px" height="36px" viewBox="0 0 119 36" version="1.1" xmlns="http://www.w3.org/2000/svg" xmlns:xlink="http://www.w3.org/1999/xlink">
    <!-- Generator: Sketch 49 (51002) - http://www.bohemiancoding.com/sketch -->
    <title>logo</title>
    <desc>Created with Sketch.</desc>
    <defs>
        <polygon id="path-1" points="0.100181395 8 7.83676279 8 7.83676279 0.17202 0.100181395 0.17202 0.100181395 8"></polygon>
        <polygon id="path-3" points="0 35.96356 118.971535 35.96356 118.971535 -4e-05 0 -4e-05"></polygon>
    </defs>
    <g id="Symbols" stroke="none" stroke-width="1" fill="none" fill-rule="evenodd">
        <g id="top2" transform="translate(-415.000000, -22.000000)">
            <g id="Group-2">
                <g id="logo" transform="translate(415.000000, 22.000000)">
                    <path d="M18.5762558,1.59592 C18.9775349,1.18992 18.9344419,0.50432 18.4477674,0.15832 C18.0717907,-0.10888 17.5507209,-0.02328 17.2257442,0.30552 L11.4077907,6.19152 C11.0903256,6.51272 11.0136279,7.02432 11.2654651,7.40072 C11.6038837,7.90712 12.2913953,7.95512 12.6958372,7.54552 L18.5762558,1.59592 Z" id="Fill-1" fill="#0059DB"></path>
                    <path d="M7.46517442,12.83792 C7.82731395,12.47112 7.82731395,11.87592 7.46517442,11.50952 C7.10263953,11.14272 6.51475581,11.14272 6.15222093,11.50952 L0.271802326,17.45872 C-0.0903372093,17.82552 -0.0903372093,18.42072 0.271802326,18.78752 C0.634337209,19.15392 1.22261628,19.15392 1.58475581,18.78752 L7.46517442,12.83792 Z" id="Fill-3" fill="#0059DB"></path>
                    <path d="M21.2807581,4.33224 C21.643293,3.96544 21.643293,3.37024 21.2807581,3.00384 C20.9186186,2.63744 20.3303395,2.63744 19.9682,3.00384 L14.0877814,8.95344 C13.7252465,9.31984 13.7252465,9.91504 14.0877814,10.28184 C14.4499209,10.64864 15.0382,10.64864 15.4007349,10.28184 L21.2807581,4.33224 Z" id="Fill-5" fill="#0059DB"></path>
                    <path d="M10.1696767,15.57424 C10.5318163,15.20744 10.5318163,14.61224 10.1696767,14.24584 C9.80753721,13.87904 9.21925814,13.87904 8.85672326,14.24584 L2.97630465,20.19544 C2.61416512,20.56184 2.61416512,21.15704 2.97630465,21.52384 C3.33883953,21.89024 3.9271186,21.89024 4.28925814,21.52384 L10.1696767,15.57424 Z" id="Fill-7" fill="#0059DB"></path>
                    <path d="M24.2242488,7.31016 C24.5863884,6.94336 24.5863884,6.34816 24.2242488,5.98176 C23.861714,5.61496 23.2734349,5.61496 22.9112953,5.98176 L5.91959767,23.17296 C5.55706279,23.53976 5.55706279,24.13496 5.91959767,24.50176 C6.28173721,24.86816 6.87001628,24.86816 7.23255116,24.50176 L24.2242488,7.31016 Z" id="Fill-9" fill="#0059DB"></path>
                    <path d="M29.6332535,12.78304 C29.995393,12.41624 29.995393,11.82104 29.6332535,11.45464 C29.271114,11.08784 28.6824395,11.08784 28.3203,11.45464 L11.3286023,28.64584 C10.9660674,29.01264 10.9660674,29.60784 11.3286023,29.97424 C11.6907419,30.34104 12.2790209,30.34104 12.6415558,29.97424 L29.6332535,12.78304 Z" id="Fill-11" fill="#0059DB"></path>
                    <path d="M23.044014,13.9768 C23.4065488,13.61 23.4065488,13.0148 23.044014,12.6484 C22.6818744,12.282 22.0935953,12.282 21.7310605,12.6484 L12.2944791,22.1964 C11.9319442,22.5628 11.9319442,23.158 12.2944791,23.5248 C12.6566186,23.8912 13.2448977,23.8912 13.6074326,23.5248 L23.044014,13.9768 Z" id="Fill-13" fill="#0059DB"></path>
                    <path d="M32.5763884,15.76076 C32.9389233,15.39396 32.9389233,14.79876 32.5763884,14.43236 C32.2142488,14.06596 31.6259698,14.06596 31.2634349,14.43236 L25.3834116,20.38156 C25.0208767,20.74836 25.0208767,21.34356 25.3834116,21.71036 C25.7455512,22.07676 26.3338302,22.07676 26.6959698,21.71036 L32.5763884,15.76076 Z" id="Fill-15" fill="#0059DB"></path>
                    <path d="M21.465307,27.00276 C21.8274465,26.63596 21.8274465,26.04076 21.465307,25.67436 C21.1027721,25.30756 20.514493,25.30756 20.1523535,25.67436 L14.2719349,31.62396 C13.9097953,31.99036 13.9097953,32.58556 14.2719349,32.95236 C14.6344698,33.31876 15.2223535,33.31876 15.5848884,32.95236 L21.465307,27.00276 Z" id="Fill-17" fill="#0059DB"></path>
                    <path d="M35.2808907,18.49708 C35.6434256,18.13068 35.6434256,17.53508 35.2808907,17.16868 C34.9187512,16.80228 34.3304721,16.80228 33.9679372,17.16868 L28.087914,23.11828 C27.7253791,23.48468 27.7253791,24.08028 28.087914,24.44668 C28.4500535,24.81348 29.0383326,24.81348 29.4008674,24.44668 L35.2808907,18.49708 Z" id="Fill-19" fill="#0059DB"></path>
                    <g id="Group-23" transform="translate(16.604651, 27.963560)">
                        <mask id="mask-2" fill="white">
                            <use xlink:href="#path-1"></use>
                        </mask>
                        <g id="Clip-22"></g>
                        <path d="M7.56515814,1.77552 C7.92729767,1.40872 7.92729767,0.81352 7.56515814,0.44712 C7.20262326,0.08032 6.61473953,0.08032 6.25220465,0.44712 L0.371786047,6.39672 C0.00964651163,6.76312 0.00964651163,7.35872 0.371786047,7.72512 C0.73432093,8.09192 1.3226,8.09192 1.68473953,7.72512 L7.56515814,1.77552 Z" id="Fill-21" fill="#0059DB" mask="url(#mask-2)"></path>
                    </g>
                    <path d="M58.2578535,14.9838 C56.9899698,14.4266 55.1243186,13.7654 53.5124814,13.3474 C52.7518302,14.0786 51.6286442,14.6006 49.8902953,14.9838 L58.2578535,14.9838 Z M49.6182953,19.8722 L53.9469698,19.8722 L53.9469698,18.3922 L49.6182953,18.3922 L49.6182953,19.8722 Z M48.1859465,21.1082 L55.3979,21.1082 L55.3979,17.1562 L48.1859465,17.1562 L48.1859465,21.1082 Z M47.8617605,11.5542 L46.304086,11.5542 L46.304086,8.2986 L53.2408767,8.2986 L53.2408767,7.2014 L55.0879465,7.2014 L55.0879465,8.2986 L61.6625977,8.2986 L61.6625977,11.5542 L60.0325744,11.5542 L60.0325744,9.6914 L47.8617605,9.6914 L47.8617605,11.5542 Z M61.9345977,16.4114 L59.5075512,16.4114 L59.5075512,21.269 C59.5075512,22.087 59.3442721,22.505 58.6927372,22.7138 C58.0585977,22.9578 57.0982953,22.9578 55.7039,22.9578 C55.6311558,22.5222 55.3781326,21.8954 55.1788767,21.495 C56.1747605,21.5298 57.1892256,21.5298 57.4790163,21.5126 C57.768807,21.495 57.8593419,21.443 57.8593419,21.2338 L57.8593419,16.4114 L46.0324814,16.4114 L46.0324814,14.9838 L48.3326209,14.9838 C48.1693419,14.653 47.9159233,14.2874 47.6802953,14.061 C50.4880628,13.713 51.8642721,13.1382 52.5885512,12.1634 L48.3144349,12.1634 L48.3144349,10.8926 L53.1503419,10.8926 C53.2049,10.6138 53.2586674,10.3354 53.2950395,10.0394 L54.889086,10.0394 C54.852714,10.3354 54.7985512,10.6138 54.743993,10.8926 L59.6340628,10.8926 L59.6340628,12.1634 L54.3454814,12.1634 L54.2731326,12.3026 C56.1747605,12.7554 58.4934814,13.5214 59.7791558,14.1658 L59.1454116,14.9838 L61.9345977,14.9838 L61.9345977,16.4114 Z" id="Fill-24" fill="#FFFFFF"></path>
                    <mask id="mask-4" fill="white">
                        <use xlink:href="#path-3"></use>
                    </mask>
                    <g id="Clip-27"></g>
                    <path d="M66.7894419,9.93516 L78.9966279,9.93516 L78.9966279,8.28116 L66.7894419,8.28116 L66.7894419,9.93516 Z M72.4401628,14.77476 C71.3169767,16.77716 69.9407674,18.69236 68.6005349,20.25916 L76.8415814,19.68476 C76.1714651,18.69236 75.4467907,17.71716 74.8126512,16.86396 L76.3525349,16.08076 C77.8556512,18.01316 79.6307674,20.50276 80.5179302,22.10436 L78.8883023,23.04476 C78.6344884,22.52236 78.2541628,21.89556 77.8196744,21.21676 C68.3107442,21.98276 67.1697674,22.03516 66.3367674,22.34836 C66.2280465,21.98276 65.9382558,21.05996 65.6844419,20.53756 C66.1375116,20.43316 66.5360233,19.99796 67.0970233,19.31916 C67.6042558,18.76196 68.9808605,16.86396 70.0854651,14.77476 L64.7968837,14.77476 L64.7968837,13.12076 L80.8622791,13.12076 L80.8622791,14.77476 L72.4401628,14.77476 Z" id="Fill-26" fill="#FFFFFF" mask="url(#mask-4)"></path>
                    <path d="M94.3384558,11.57152 C93.7952465,10.84032 92.5633395,9.77832 91.5310837,9.04712 L92.6356884,8.12432 C93.6683395,8.80352 94.9180372,9.81312 95.5158047,10.54432 L94.3384558,11.57152 Z M93.885386,16.15032 C93.2876186,15.40192 91.9655721,14.28752 90.8609674,13.55632 L91.9292,12.61592 C93.016014,13.31272 94.3926186,14.35712 95.0263628,15.08832 L93.885386,16.15032 Z M97.8341302,18.50072 L97.8341302,22.95752 L96.1677349,22.95752 L96.1677349,18.77952 L90.4624558,19.70192 L90.2090372,18.15232 L96.1677349,17.19512 L96.1677349,6.99272 L97.8341302,6.99272 L97.8341302,16.93392 L99.808107,16.62032 L100.061921,18.13512 L97.8341302,18.50072 Z M89.3392698,17.64752 C89.0858512,17.12552 88.4698977,16.15032 87.9266884,15.34952 L87.9266884,22.95752 L86.2966651,22.95752 L86.2966651,15.90672 C85.6265488,17.49072 84.8113395,18.97072 83.9783395,19.96312 C83.8154558,19.52792 83.4169442,18.86632 83.1631302,18.46592 C84.2321535,17.28192 85.3913163,15.21032 86.0610372,13.36472 L83.3987581,13.36472 L83.3987581,11.84992 L86.2966651,11.84992 L86.2966651,9.51712 C85.5178279,9.65632 84.7389907,9.76072 84.0147116,9.86512 C83.9601535,9.51712 83.7245256,8.94272 83.5434558,8.61192 C85.5719907,8.29832 87.8903163,7.79352 89.3036884,7.20152 L90.2628047,8.52472 C89.5748977,8.78592 88.7782698,8.99472 87.9266884,9.18632 L87.9266884,11.84992 L90.4624558,11.84992 L90.4624558,13.36472 L87.9266884,13.36472 L87.9266884,13.60832 C88.4698977,14.14832 90.0097814,15.92392 90.3537349,16.37672 L89.3392698,17.64752 Z" id="Fill-28" fill="#FFFFFF" mask="url(#mask-4)"></path>
                    <path d="M110.839249,14.94904 C111.41883,16.30704 112.215458,17.50824 113.266295,18.53544 C114.389086,17.54304 115.29483,16.34184 115.910388,14.94904 L110.839249,14.94904 Z M118.242947,13.46784 C117.518272,15.87024 116.109644,18.13504 114.515993,19.59744 C115.765691,20.50264 117.251016,21.18184 118.971179,21.61704 C118.590853,21.93064 118.119993,22.57464 117.884365,22.99224 C116.055086,22.48744 114.515993,21.70424 113.193947,20.64224 C111.744993,21.68664 110.060412,22.45264 108.249319,22.95744 C108.068249,22.53984 107.651551,21.84344 107.343574,21.49504 C109.028156,21.09464 110.603621,20.43304 111.998412,19.52784 C110.802877,18.25704 109.878947,16.69024 109.19104,14.94904 L108.888202,14.94904 L108.701993,14.94904 L108.701993,13.46904 L112.4329,13.46904 L112.4329,11.08384 L108.46676,11.08384 L108.46676,9.60424 L112.4329,9.60424 L112.4329,6.99264 L114.099295,6.99264 L114.099295,9.60424 L118.412156,9.60424 L118.412156,11.08384 L114.099295,11.08384 L114.099295,13.46904 L118.242947,13.46784 Z M108.285295,15.95864 C107.597388,16.15024 106.909086,16.34184 106.220388,16.53344 L106.220388,21.11224 C106.220388,21.94784 106.039714,22.38304 105.514295,22.62664 C104.988877,22.87064 104.174063,22.92304 102.942156,22.90544 C102.870202,22.52224 102.65276,21.84344 102.435319,21.44304 C103.232342,21.46024 103.993388,21.46024 104.21004,21.44304 C104.48204,21.44304 104.572574,21.35584 104.572574,21.11224 L104.572574,16.98584 C103.866086,17.17744 103.214156,17.35144 102.580016,17.50824 L102.145528,15.95864 C102.83383,15.80224 103.66683,15.61064 104.572574,15.40184 L104.572574,11.90224 L102.344784,11.90224 L102.344784,10.40504 L104.572574,10.40504 L104.572574,6.99264 L106.220388,6.99264 L106.220388,10.38744 L108.122412,10.38744 L108.122412,11.90224 L106.220388,11.90224 L106.220388,14.96624 L108.08604,14.49664 L108.285295,15.95864 Z" id="Fill-29" fill="#FFFFFF" mask="url(#mask-4)"></path>
                    <polygon id="Fill-30" fill="#FFFFFF" mask="url(#mask-4)" points="62.7471977 25.4502 64.6729419 25.4502 64.6729419 33.0186 62.7471977 33.0186 59.3792209 28.4418 59.3792209 33.0186 57.4530814 33.0186 57.4530814 25.4502 59.3792209 25.4502 62.7471977 30.0274"></polygon>
                    <path d="M68.2230163,28.71388 C67.6833651,28.71388 67.3619465,29.04028 67.2599465,29.69268 L69.1204581,29.69268 L69.1204581,29.56308 C69.1275744,29.29308 69.0524581,29.08428 68.8959,28.93628 C68.7389465,28.78828 68.5143884,28.71388 68.2230163,28.71388 M68.4305744,33.01868 C67.5228535,33.01868 66.7879,32.77188 66.2265047,32.27708 C65.664714,31.78268 65.3836209,31.13948 65.3836209,30.34708 L65.3836209,30.20708 C65.3836209,29.65468 65.4962953,29.16668 65.7204581,28.74388 C65.9446209,28.32108 66.2719698,27.99388 66.7021093,27.76268 C67.1322488,27.53108 67.6430395,27.41548 68.2336907,27.41548 C69.0655047,27.41548 69.7217837,27.65108 70.2033186,28.12228 C70.6848535,28.59348 70.9252256,29.24988 70.9252256,30.09228 L70.9252256,30.74668 L67.2599465,30.74668 C67.3255744,31.04948 67.4698767,31.28748 67.6924581,31.46068 C67.9150395,31.63388 68.2028535,31.72028 68.5566907,31.72028 C69.1398302,31.72028 69.5960628,31.53388 69.9242023,31.16108 L70.7666907,32.06988 C70.536993,32.35948 70.2112256,32.59028 69.7901791,32.76188 C69.3687372,32.93308 68.9160628,33.01868 68.4305744,33.01868" id="Fill-31" fill="#FFFFFF" mask="url(#mask-4)"></path>
                    <path d="M75.1918302,32.3346 C74.8020163,32.791 74.2750163,33.0186 73.6112256,33.0186 C72.9616674,33.0186 72.4706442,32.8466 72.1365744,32.5018 C71.8032953,32.1574 71.6364581,31.6622 71.6364581,31.0162 L71.6364581,27.5154 L73.4799698,27.5154 L73.4799698,31.0262 C73.4799698,31.489 73.7258767,31.7202 74.2184814,31.7202 C74.6411093,31.7202 74.9419698,31.5822 75.1206674,31.3058 L75.1206674,27.5154 L76.9752488,27.5154 L76.9752488,33.0186 L75.1918302,33.0186 L75.1918302,32.3346 Z" id="Fill-32" fill="#FFFFFF" mask="url(#mask-4)"></path>
                    <path d="M77.891707,29.29612 C77.891707,27.18932 79.6055442,25.57332 81.9693349,25.57332 C83.3921953,25.57332 84.6466372,26.21772 85.3298,27.23012 L83.783986,28.04852 C83.4368698,27.49612 82.7647767,27.16892 81.9693349,27.16892 C80.5804744,27.16892 79.6838233,28.01772 79.6838233,29.29612 C79.6838233,30.57452 80.5804744,31.42332 81.9693349,31.42332 C82.7647767,31.42332 83.4483349,31.09612 83.783986,30.54372 L85.3298,31.36212 C84.657707,32.37452 83.4032651,33.01892 81.9693349,33.01892 C79.6055442,33.01892 77.891707,31.40292 77.891707,29.29612" id="Fill-33" fill="#FFFFFF" mask="url(#mask-4)"></path>
                    <polygon id="Fill-34" fill="#FFFFFF" mask="url(#mask-4)" points="85.8907209 33.01876 87.8065814 33.01876 87.8065814 25.45036 85.8907209 25.45036"></polygon>
                    <path d="M90.2783814,30.26076 C90.2783814,30.65636 90.3756372,30.94636 90.5705442,31.13116 C90.7654512,31.31596 91.0536605,31.40836 91.4355674,31.40836 C92.181986,31.40836 92.5634977,31.04276 92.5801023,30.31196 L92.5801023,30.17756 C92.5801023,29.40996 92.1942419,29.02636 91.4233116,29.02636 C90.7456837,29.02636 90.3685209,29.33556 90.2914279,29.95396 C90.2862884,29.99716 90.2839163,30.04116 90.2827302,30.08476 L90.2783814,30.26076 Z M88.5736372,30.16716 C88.5736372,29.62796 88.6886837,29.14756 88.9187767,28.72636 C89.1484744,28.30516 89.4781953,27.98156 89.9083349,27.75516 C90.3388698,27.52876 90.8437302,27.41556 91.423707,27.41556 C92.3100791,27.41556 93.0082651,27.66596 93.5186605,28.16716 C94.0294512,28.66836 94.2844512,29.34996 94.2844512,30.21196 L94.2844512,30.27196 C94.2844512,31.11436 94.0282651,31.78276 93.515893,32.27716 C93.0039163,32.77156 92.3100791,33.01876 91.4347767,33.01876 C90.5922884,33.01876 89.9158465,32.78836 89.4050558,32.32716 C88.8946605,31.86596 88.6194977,31.24076 88.5791721,30.45196 L88.5736372,30.16716 Z" id="Fill-35" fill="#FFFFFF" mask="url(#mask-4)"></path>
                    <path d="M98.6224163,32.3346 C98.2326023,32.791 97.7056023,33.0186 97.0418116,33.0186 C96.3922535,33.0186 95.9012302,32.8466 95.5671605,32.5018 C95.2338814,32.1574 95.0670442,31.6622 95.0670442,31.0162 L95.0670442,27.5154 L96.9105558,27.5154 L96.9105558,31.0262 C96.9105558,31.489 97.1564628,31.7202 97.6490674,31.7202 C98.0716953,31.7202 98.3725558,31.5822 98.5512535,31.3058 L98.5512535,27.5154 L100.40623,27.5154 L100.40623,33.0186 L98.6224163,33.0186 L98.6224163,32.3346 Z" id="Fill-36" fill="#FFFFFF" mask="url(#mask-4)"></path>
                    <path d="M105.318637,30.29864 C105.302428,31.02944 104.920521,31.39464 104.174102,31.39464 C103.792591,31.39464 103.504381,31.30264 103.309474,31.11784 C103.114172,30.93304 103.017312,30.64304 103.017312,30.24744 L103.021265,30.07144 C103.022451,30.02784 103.024428,29.98384 103.029963,29.94024 C103.107056,29.32224 103.484219,29.01264 104.161451,29.01264 C104.932777,29.01264 105.318637,29.39664 105.318637,30.16424 L105.318637,30.29864 Z M105.703312,25.45024 L105.703312,28.16704 C105.29294,27.64784 104.70387,27.38784 103.937288,27.38784 C103.169916,27.38784 102.520358,27.65264 101.987428,28.18184 C101.454893,28.71104 101.188428,29.38664 101.188428,30.20824 C101.188428,31.03024 101.454893,31.70384 101.987428,32.22984 C102.520358,32.75584 103.161219,33.01864 103.910009,33.01864 C104.659195,33.01864 105.256567,32.72944 105.703312,32.15104 L105.703312,33.01864 L107.550381,33.01864 L107.550381,25.45024 L105.703312,25.45024 Z" id="Fill-37" fill="#FFFFFF" mask="url(#mask-4)"></path>
                </g>
            </g>
        </g>
    </g>
</svg>